<?xml version="1.0" encoding="utf-8"?>
<!-- Generator: Adobe Illustrator 27.0.0, SVG Export Plug-In . SVG Version: 6.00 Build 0)  -->
<svg version="1.1" id="레이어_1" xmlns="http://www.w3.org/2000/svg" xmlns:xlink="http://www.w3.org/1999/xlink" x="0px"
	 y="0px" viewBox="0 0 595.3 841.9" style="enable-background:new 0 0 595.3 841.9;" xml:space="preserve">
<style type="text/css">
	.st0{fill:url(#SVGID_1_);}
	.st1{display:none;fill:#9B8B25;}
	.st2{fill:#050101;}
	.st3{fill:#3A3619;stroke:#050101;stroke-width:0.25;stroke-miterlimit:10;}
	.st4{fill:none;}
	.st5{fill:none;stroke:#050101;stroke-width:4;stroke-miterlimit:10;}
	.st6{fill:#040000;}
	.st7{fill:#FFFFFF;}
	.st8{fill:url(#SVGID_00000018918187696734669550000015947496378041651610_);}
	.st9{fill:#080203;}
	.st10{fill:#B86C28;}
	.st11{fill:#F3D825;}
	.st12{fill:#F2EC51;}
	.st13{fill:#C02628;}
	.st14{display:none;}
	.st15{display:inline;fill:url(#SVGID_00000096054524260664802950000003248222520989252784_);}
	.st16{display:inline;fill:none;stroke:#040000;stroke-width:2;stroke-miterlimit:10;}
	.st17{display:inline;}
	.st18{fill:none;stroke:#2A2A27;stroke-miterlimit:10;}
	.st19{font-family:'DungGeunMo';}
	.st20{font-size:27.6683px;}
	.st21{display:none;fill:#030F26;}
	.st22{fill:#FDFBE1;}
	.st23{font-size:15.6777px;}
	.st24{fill:#F2DB77;stroke:#000000;stroke-width:0.25;stroke-miterlimit:10;}
	.st25{font-size:19px;}
	.st26{stroke:#F2DB77;stroke-miterlimit:10;}
	.st27{stroke:#F2DB77;stroke-width:0.25;stroke-miterlimit:10;}
	.st28{fill:#F2DB77;}
	.st29{display:none;fill:#040000;}
</style>
<radialGradient id="SVGID_1_" cx="310.9608" cy="304.6667" r="343.5714" gradientUnits="userSpaceOnUse">
	<stop  offset="0.1" style="stop-color:#9C9C9C"/>
	<stop  offset="0.3214" style="stop-color:#676B73"/>
	<stop  offset="0.57" style="stop-color:#313949"/>
	<stop  offset="0.7567" style="stop-color:#101B30"/>
	<stop  offset="0.8583" style="stop-color:#030F26"/>
</radialGradient>
<rect x="0" class="st0" width="595.3" height="841.9"/>
<path class="st1" d="M564.3-169.9l13.8-17.4h27.1c0,0,38,6.2,56.9,8.7c18.9,2.6,61.5-9.3,71.3-8.7c9.8,0.6,31.7-19.6,53.4-16.6
	s69.7,15.4,75,16.6c5.3,1.2,34.9,5.8,37.3,17.4c2.4,11.6,11.3,33.2,24.3,34.8c13,1.7,44.4,1.6,50.4,8.2c5.9,6.5,29.6,23,26.1,32.2
	c-3.6,9.3-12.4,51.6-12.4,59.8s-10.7,28.3-27.3,33S851.1,8.2,827.1,9.4c-24,1.2-114.1,5.3-123,5.3s-70.5-7.7-102.8-6.5
	s-83.2-4.1-96.9-3c-13.6,1.2-52.1-3.6-52.7-9.5s-7.1-38.5-8.3-46.8s5.9-68.1,5.9-68.1l49.2-10.6l30.2-30.1L564.3-169.9z"/>
<g>
	<polygon class="st2" points="276.5,107 402.8,219.5 278.7,310.5 402.8,430.9 223.7,313.1 355.3,214.4 	"/>
	<polygon class="st3" points="276.5,195 402.8,307.5 278.7,398.6 402.8,518.9 223.7,401.1 355.3,302.4 	"/>
	<path class="st4" d="M390.2,464.8c52.7-27.7,88.6-83,88.6-146.6c0-77.3-53-142.3-124.7-160.5l-40.9,160.5L390.2,464.8z"/>
	<path class="st4" d="M279.7,155.9c-75.4,15.5-132,82.2-132,162.2c0,91.5,74.1,165.6,165.6,165.6c3.6,0,7.1-0.1,10.7-0.4
		l-10.7-165.2L279.7,155.9z"/>
	<path class="st2" d="M313.3,483.7c-91.5,0-165.6-74.1-165.6-165.6c0-80,56.7-146.7,132-162.2l-5.7-27.7
		c-88.2,18.2-154.6,96.3-154.6,189.9c0,107.1,86.8,193.9,193.9,193.9c4.2,0,8.4-0.1,12.5-0.4l-1.8-28.2
		C320.4,483.6,316.9,483.7,313.3,483.7z"/>
	<path class="st2" d="M507.1,318.1c0-90.5-62.1-166.6-145.9-187.9l-7,27.4c71.7,18.2,124.7,83.2,124.7,160.5
		c0,63.7-35.9,118.9-88.6,146.6l13.1,25C465.1,457.3,507.1,392.6,507.1,318.1z"/>
	<path class="st5" d="M313.3,86.9c-126.7,0-229.4,102.7-229.4,229.4s102.7,229.4,229.4,229.4c126.7,0,229.4-102.7,229.4-229.4
		S440,86.9,313.3,86.9z"/>
	<g>
		<g>
			<path class="st6" d="M149.2,143.5l-1.1,1c-0.3-0.1-0.7-0.5-1.3-1.1c0.2,1.1,0,2.6-1.6,4.2c-2.8,2.7-6.3,2-8.9-0.7
				c-2.8-2.9-3.3-6.6-0.4-9.4c2.3-2.2,4.9-2.3,6.8-0.9l-1.4,1.4c-1.3-0.7-2.7-0.8-4.3,0.7c-2.2,2.1-1.3,4.7,0.7,6.7
				c1.9,1.9,4.4,2.9,6.6,0.8c2.1-2,1.2-3.9-0.2-5.4l-0.1-0.1l-2.6,2.5l-1.2-1.2l4-3.9L149.2,143.5z"/>
			<path class="st6" d="M150.3,137.4l1.5,3.8l-1.5,1.3l-5.2-13.1l1.8-1.6l12.5,6.8l-1.6,1.4l-3.6-2L150.3,137.4z M152.8,133
				c-3.1-1.7-4.9-2.7-5.8-3.3l0,0c0.5,1.1,1.4,3.3,2.6,6.1L152.8,133z"/>
			<path class="st6" d="M166.4,122c-1.5-1.9-3-3.9-3.8-5.1l-0.1,0c0.9,2.1,2.7,7.7,4.1,11.9l-1.4,1.1c-3-2.1-8.4-5.7-10.3-7.2
				l-0.1,0c1,1.2,2.9,3.4,4.3,5.3l3.2,4.1l-1.5,1.1l-8.2-10.6l2.3-1.8c3.6,2.3,8.1,5.3,9.5,6.4l0,0c-0.6-1.3-2.4-7-3.6-11l2.3-1.8
				l8.2,10.6l-1.5,1.2L166.4,122z"/>
			<path class="st6" d="M177.5,113.5l-5.4,3.7l2.5,3.7l6-4.1l0.7,1.5l-7.4,5l-7.5-11l7.3-5l0.9,1.4l-5.7,3.9l2.2,3.2l5.4-3.7
				L177.5,113.5z"/>
			<path class="st6" d="M180.5,103.1l4.2-2.5c3.3-1.9,6.7-1,8.7,2.5c2,3.4,1.3,7.1-2.1,9.1l-4.1,2.4L180.5,103.1z M188.1,112.2
				l2.3-1.4c2.6-1.5,2.7-4.1,1.3-6.7c-1.3-2.2-3.6-3.6-6.3-2l-2.3,1.4L188.1,112.2z"/>
			<path class="st6" d="M203.8,98.4l-5.9,3l2,4l6.4-3.3l0.5,1.6l-7.9,4.1l-6.1-11.9l7.8-4.1l0.8,1.5l-6.1,3.2l1.8,3.4l5.9-3
				L203.8,98.4z"/>
			<path class="st6" d="M212.1,101.3l-9.9-10.1l1.9-0.9l4.8,5c1.4,1.5,2.8,2.9,3.6,4l0,0c-0.2-1.1-0.4-3.2-0.6-5.3l-0.6-7l1.9-0.8
				l1,14.2L212.1,101.3z"/>
			<path class="st6" d="M225.9,88.8l-6.1,2.4l1.7,4.2l6.7-2.7l0.4,1.6l-8.3,3.3l-4.9-12.4l8.2-3.3l0.6,1.6l-6.4,2.5l1.4,3.6l6.1-2.4
				L225.9,88.8z"/>
			<path class="st6" d="M226.5,81l1.9-0.6l3.8,11l6.5-2.3l0.3,1.7l-8.1,2.8L226.5,81z"/>
			<path class="st6" d="M250.3,80.4c1,3.5-0.1,7.2-4.1,8.4c-3.8,1.1-6.8-1.2-7.8-4.9c-1.1-3.7,0.3-7.2,4.2-8.3
				C246.1,74.5,249.2,76.6,250.3,80.4z M240.3,83.3c0.8,2.7,2.8,4.7,5.5,3.9c2.9-0.8,3.3-3.5,2.6-6.2c-0.8-2.7-2.7-4.6-5.4-3.8
				C240.1,78,239.5,80.6,240.3,83.3z"/>
			<path class="st6" d="M251.6,73.3l5-1.2c2.6-0.6,4.7,0.4,5.2,2.8c0.6,2.6-1,4.4-3.5,4.9l-3,0.7l1.2,5.2l-1.9,0.4L251.6,73.3z
				 M254.9,79l2.8-0.7c1.7-0.4,2.4-1.4,2.1-2.9c-0.4-1.5-1.6-2-3-1.7l-2.9,0.7L254.9,79z"/>
			<path class="st6" d="M276.4,76.3c-0.4-2.4-0.8-4.9-1-6.3l-0.1,0c-0.2,2.3-1.2,8.1-2,12.5l-1.7,0.3c-1.7-3.2-4.8-8.9-5.7-11.2
				l-0.1,0c0.4,1.5,0.9,4.4,1.3,6.6l0.9,5.1l-1.8,0.3l-2.2-13.1l2.9-0.5c2.1,3.7,4.6,8.5,5.4,10.2l0,0c0.1-1.4,1.2-7.3,2-11.4
				l2.8-0.5l2.2,13.1l-1.9,0.3L276.4,76.3z"/>
			<path class="st6" d="M290.2,74l-6.5,0.7l0.5,4.4l7.2-0.8l-0.1,1.7l-8.9,1l-1.5-13.3l8.8-1l0.2,1.7l-6.9,0.8l0.4,3.8l6.5-0.7
				L290.2,74z"/>
			<path class="st6" d="M293.7,79.9l-0.8-13.3l2.6-0.1c2,3,6.4,9.1,7.2,10.5l0,0c-0.2-1.6-0.3-3.8-0.5-6l-0.3-5l1.8-0.1l0.8,13.3
				l-2.4,0.1c-1.9-2.7-6.4-9.4-7.3-10.9l0,0c0.2,1.4,0.3,3.8,0.5,6.2l0.3,5.1L293.7,79.9z"/>
			<path class="st6" d="M310.3,67.5l-4.3,0l0-1.7l10.5-0.1l0,1.7l-4.3,0l0.1,11.7l-2,0L310.3,67.5z"/>
			<path class="st6" d="M333.9,76.1c-0.7,2.3-2.5,3.9-5.6,3.7c-4-0.2-5.9-3.4-5.6-7.1c0.2-3.6,2.4-6.8,6.5-6.5
				c3.2,0.2,4.8,2.1,5.1,4.4l-2-0.1c-0.4-1.4-1.2-2.5-3.3-2.7c-2.8-0.2-4.1,2.3-4.3,5c-0.2,2.5,0.8,5.3,3.7,5.5c2,0.1,2.9-1,3.5-2.2
				L333.9,76.1z"/>
			<path class="st6" d="M337.5,66.9l2,0.2l-1.3,11.6l6.9,0.8l-0.4,1.6l-8.6-0.9L337.5,66.9z"/>
			<path class="st6" d="M350.5,68.5l-1.3,7.9c-0.5,3,1,4.1,2.7,4.3c1.9,0.3,3.4-0.4,3.8-3.3l1.3-7.9l2,0.3l-1.3,7.8
				c-0.7,4.3-3.3,5.1-6.1,4.7c-2.8-0.4-5-2.1-4.3-6.3l1.3-7.9L350.5,68.5z"/>
			<path class="st6" d="M362.7,70.6l5.1,1.1c2.8,0.6,3.8,2.4,3.4,4.2c-0.3,1.5-1.4,2.3-2.4,2.4c0.8,0.5,2,1.7,1.6,3.6
				c-0.5,2.4-2.7,3.4-5.2,2.9l-5.3-1.1L362.7,70.6z M362.1,82.4l3.1,0.7c1.6,0.3,2.8-0.2,3.2-1.7c0.3-1.3-0.4-2.4-2.5-2.9l-2.8-0.6
				L362.1,82.4z M366.4,77c1.8,0.4,2.6-0.2,2.9-1.4c0.2-1.1-0.4-2.1-1.9-2.4l-3.1-0.7l-0.8,3.8L366.4,77z"/>
			<path class="st6" d="M540.1,227.4c-2.3,0.4-4.6-0.5-5.8-3.3c-1.6-3.7,0.4-6.7,3.8-8.3c3.3-1.5,7.1-0.9,8.8,2.9
				c1.3,3,0.3,5.3-1.6,6.5l-0.8-1.8c1.1-1,1.7-2.2,0.9-4.1c-1.1-2.6-4-2.6-6.4-1.6c-2.3,1-4.4,3.1-3.2,5.8c0.8,1.9,2.2,2.1,3.5,2.1
				L540.1,227.4z"/>
			<path class="st6" d="M547.8,239.8c-3.4,1.3-7.2,0.4-8.7-3.5c-1.4-3.7,0.7-6.8,4.3-8.2c3.6-1.3,7.2-0.3,8.6,3.6
				C553.3,235.2,551.5,238.4,547.8,239.8z M544.2,230c-2.7,1-4.4,3.1-3.5,5.7c1,2.8,3.8,3,6.4,2.1c2.6-1,4.4-3,3.4-5.7
				C549.4,229.4,546.8,229,544.2,230z"/>
			<path class="st6" d="M542.2,244.4l12.8-3.9l0.8,2.5c-2.4,2.7-7.4,8.3-8.6,9.4l0,0c1.5-0.6,3.6-1.2,5.7-1.9l4.8-1.4l0.5,1.8
				l-12.8,3.9l-0.7-2.3c2.2-2.5,7.7-8.5,8.9-9.7l0,0c-1.4,0.5-3.6,1.2-5.9,1.9l-4.9,1.5L542.2,244.4z"/>
			<path class="st6" d="M558.2,257.7l-1-4.1l1.6-0.4l2.5,10.2l-1.6,0.4l-1-4.1l-11.3,2.8l-0.5-1.9L558.2,257.7z"/>
			<path class="st6" d="M556.4,275.4l-1.3-6.5l-4.4,0.9l1.4,7.1l-1.7,0.1l-1.8-8.7l13.1-2.6l1.8,8.7l-1.6,0.3l-1.4-6.8l-3.8,0.8
				l1.3,6.5L556.4,275.4z"/>
			<path class="st6" d="M550.9,279.3l13.2-2l0.4,2.5c-2.8,2.3-8.5,7.1-9.9,8.1l0,0c1.6-0.4,3.7-0.7,5.9-1l4.9-0.7l0.3,1.8l-13.2,2
				l-0.4-2.4c2.6-2.1,8.8-7.2,10.2-8.3l0,0c-1.4,0.3-3.7,0.7-6.1,1l-5,0.7L550.9,279.3z"/>
			<path class="st6" d="M564.7,294.8l-0.4-4.2l1.7-0.2l1,10.5l-1.7,0.2l-0.4-4.2l-11.6,1.1l-0.2-2L564.7,294.8z"/>
			<path class="st6" d="M557.6,304.7c-1.5,0.4-2.3,1.5-2.2,3.4c0.1,2,1,2.7,2.2,2.7c1.3-0.1,2-0.8,2.4-3.4c0.6-3.3,1.7-4.4,3.5-4.5
				c2-0.1,3.7,1.3,3.9,4.3c0.2,3.2-1.6,4.7-3.4,4.9l-0.1-2c1.1-0.3,2-1,1.9-2.9c-0.1-1.5-0.8-2.4-2-2.3c-1.2,0.1-1.6,0.8-2.1,3.1
				c-0.7,3.9-2.2,4.6-3.9,4.7c-2.2,0.1-4-1.4-4.1-4.7c-0.2-3.4,1.6-5,3.7-5.3L557.6,304.7z"/>
			<path class="st6" d="M562.3,336.9l-4.8-3.6c-2.2-1.7-3.5-2.8-3.4-5.4c0.1-2.6,2-3.8,3.7-3.7c1.8,0.1,2.9,1.1,4.1,3.8
				c0.8,1.7,1.4,2.7,2.6,2.8c0.9,0,1.7-0.5,1.8-1.5c0-1-0.6-1.7-1.7-1.7c-0.8,0-1.6,0.6-2.5,1.5l-8.2,7.7l0.1-2.5l7.3-6.8
				c1-1,2-1.7,3.3-1.6c1.8,0.1,3.2,1.4,3.1,3.6c-0.1,2-1.6,3.2-3.2,3.2c-1.5-0.1-2.4-1.1-3.6-3.6c-1-2.2-1.9-2.8-3-2.8
				c-1.1,0-2.2,0.8-2.2,2c-0.1,1.5,0.5,2.3,2.9,4.1l3.8,2.7L562.3,336.9z"/>
			<path class="st6" d="M556.3,349.8c-1.6,0.1-2.5,1.1-2.8,2.9c-0.3,2,0.5,2.9,1.7,3c1.3,0.2,2.1-0.4,3-2.9c1.2-3.1,2.5-4,4.3-3.8
				c2,0.3,3.4,2,3,5c-0.4,3.2-2.4,4.3-4.2,4.2l0.3-2c1.1-0.1,2.2-0.6,2.4-2.5c0.2-1.5-0.4-2.5-1.6-2.6c-1.2-0.2-1.7,0.5-2.6,2.7
				c-1.4,3.7-3,4.2-4.7,3.9c-2.2-0.3-3.6-2.1-3.2-5.4c0.4-3.3,2.4-4.6,4.6-4.6L556.3,349.8z"/>
			<path class="st6" d="M555.6,372.4c-3.6-0.7-6.4-3.3-5.6-7.5c0.7-3.9,4.1-5.5,7.9-4.8c3.8,0.7,6.3,3.5,5.6,7.5
				C562.7,371.3,559.5,373.2,555.6,372.4z M557.5,362.2c-2.8-0.5-5.4,0.4-5.9,3.1c-0.6,2.9,1.7,4.6,4.4,5.1c2.8,0.5,5.3-0.4,5.8-3.1
				C562.3,364.4,560.3,362.7,557.5,362.2z"/>
			<path class="st6" d="M561.4,376.7l-2.1,8.5l-1.6-0.4l1.6-6.6l-4-1l-1.5,6.2l-1.6-0.4l1.5-6.2l-5.7-1.4l0.5-1.9L561.4,376.7z"/>
			<path class="st6" d="M556.3,389.8l1.2-4.1l1.6,0.5l-2.9,10.1l-1.6-0.5l1.2-4.1l-11.2-3.2l0.6-1.9L556.3,389.8z"/>
			<path class="st6" d="M542.1,396.2l13.7,1.1l-0.7,2c-4.8-0.6-9.9-1-11.4-1.3l0,0c1.6,1,6.7,4.6,9.6,6.5l-0.6,1.8
				c-3-0.2-9.7-0.8-11.4-1l0,0c2.1,1.2,7.3,4.9,9.5,6.4l-0.7,1.8l-11.3-8.1l0.7-2c3.1,0.3,9.3,0.8,11,1l0,0
				c-1.8-1.1-6.6-4.5-9.2-6.3L542.1,396.2z"/>
			<path class="st6" d="M539.5,414.1l-3-2.8l0.8-1.8l10.4,9.6l-1,2.3l-14.2-0.7l0.8-1.9l4.1,0.2L539.5,414.1z M539.2,419.1
				c3.6,0.2,5.5,0.3,6.6,0.5l0,0c-0.9-0.8-2.7-2.3-5-4.4L539.2,419.1z"/>
			<path class="st6" d="M536.1,426.6l-5.2-2.5l0.9-1.8l12,5.9l-2.3,4.8c-1.2,2.5-3.2,3.2-5.1,2.2c-1.6-0.8-2.1-2.1-1.8-3.4
				c-0.7,0.8-1.8,1.3-3.9,0.3l-0.5-0.3c-0.8-0.4-1.8-0.9-2.4-1l0.8-1.7c0.6,0,1.5,0.5,2.7,1.1l0.2,0.1c1.6,0.8,2.6,0.7,3.6-1.4
				L536.1,426.6z M537.6,427.3l-1.2,2.5c-0.9,1.8-0.6,2.8,0.7,3.5c1.2,0.6,2.3,0.1,3.1-1.4l1.3-2.7L537.6,427.3z"/>
			<path class="st6" d="M527.6,443.6l3.2-5.8l-3.9-2.2l-3.5,6.3l-1.3-1l4.3-7.8l11.7,6.5l-4.3,7.7l-1.5-0.8l3.3-6l-3.4-1.9l-3.2,5.8
				L527.6,443.6z"/>
			<path class="st6" d="M515.8,458.1c-1.6-1.7-2.1-4.1-0.4-6.7c2.2-3.4,5.8-3.4,9-1.4c3,2,4.7,5.5,2.5,8.9c-1.8,2.7-4.2,3.1-6.3,2.2
				l1.1-1.7c1.4,0.4,2.8,0.2,3.9-1.5c1.5-2.4,0-4.7-2.2-6.2c-2.1-1.4-5-1.9-6.6,0.6c-1.1,1.7-0.6,3.1,0.2,4.1L515.8,458.1z"/>
			<path class="st6" d="M509.7,471.3c-3-2.2-4.4-5.8-1.9-9.2c2.3-3.2,6.1-3.2,9.2-0.9c3.1,2.3,4.2,5.9,1.8,9.2
				C516.6,473.4,512.9,473.7,509.7,471.3z M515.9,462.9c-2.3-1.7-5.1-2-6.7,0.3c-1.8,2.4-0.5,4.8,1.8,6.5c2.3,1.7,4.9,2,6.6-0.3
				C519.3,467,518.1,464.6,515.9,462.9z"/>
			<path class="st6" d="M513.1,477.7l-1.2,1.5l-9-7.4l-4.4,5.4l-1.1-1.3l5.4-6.7L513.1,477.7z"/>
			<path class="st6" d="M505.9,486.4l-1.3,1.5l-8.7-7.7l-4.6,5.2l-1.1-1.3l5.7-6.4L505.9,486.4z"/>
			<path class="st6" d="M490.2,489.5l-1.7-3.7l1.4-1.4l6.1,12.8l-1.7,1.7l-12.9-6l1.5-1.5l3.7,1.7L490.2,489.5z M488,494.1
				c3.2,1.5,5,2.4,6,2.9l0,0c-0.6-1.1-1.6-3.2-3-5.9L488,494.1z"/>
			<path class="st6" d="M489.1,504.1l-3.9,3.6c-2.1,2-4.1,1.7-5.3,0.4c-1-1.1-1.1-2.5-0.6-3.4c-0.9,0.4-2.5,0.6-3.8-0.8
				c-1.7-1.8-1.3-4.2,0.6-5.9l4-3.7L489.1,504.1z M479.7,496.8l-2.3,2.1c-1.2,1.1-1.5,2.4-0.4,3.6c0.9,1,2.2,1.1,3.8-0.4l2.1-2
				L479.7,496.8z M481.7,503.4c-1.3,1.2-1.4,2.3-0.5,3.2c0.8,0.8,1.9,0.8,3-0.2l2.4-2.2l-2.6-2.9L481.7,503.4z"/>
			<path class="st6" d="M466.2,515.3c-2.3-2.8-2.8-6.7,0.5-9.4c3.1-2.5,6.7-1.6,9.1,1.4c2.4,3,2.6,6.7-0.5,9.3
				C472.3,519,468.7,518.4,466.2,515.3z M474.2,508.6c-1.8-2.2-4.4-3.1-6.6-1.4c-2.3,1.9-1.6,4.6,0.1,6.7c1.8,2.2,4.3,3.1,6.5,1.3
				C476.5,513.4,476,510.8,474.2,508.6z"/>
			<path class="st6" d="M461.8,517.4l-3.4-4.6l1.6-1.2l7.9,10.7l-4.3,3.2c-2.2,1.6-4.3,1.3-5.5-0.4c-1-1.4-0.9-2.8-0.1-3.8
				c-1,0.4-2.2,0.3-3.6-1.6l-0.3-0.5c-0.5-0.7-1.2-1.7-1.7-2l1.5-1.1c0.5,0.3,1.1,1.2,1.9,2.2l0.2,0.2c1.1,1.5,2,1.8,3.8,0.4
				L461.8,517.4z M462.7,518.7l-2.3,1.7c-1.6,1.2-1.8,2.2-1,3.4c0.8,1.1,2,1.2,3.4,0.1l2.4-1.8L462.7,518.7z"/>
			<path class="st6" d="M450.6,523l-1-3.9l1.6-1.1l3.4,13.7l-2,1.4l-11.5-8.4l1.8-1.2l3.3,2.4L450.6,523z M447.5,527
				c2.9,2.1,4.5,3.3,5.3,4l0,0c-0.4-1.2-1-3.4-1.7-6.4L447.5,527z"/>
			<path class="st6" d="M443.2,537l3.7-2.2l0.9,1.4l-9,5.4l-0.9-1.4l3.7-2.2l-6-10l1.7-1L443.2,537z"/>
			<path class="st6" d="M435.1,543.6l-6.4-11.7l1.7-1l6.4,11.7L435.1,543.6z"/>
			<path class="st6" d="M418.3,544.7c-1.6-3.3-1.2-7.1,2.6-9c3.6-1.8,6.9,0,8.6,3.4c1.7,3.4,1,7.2-2.6,9
				C423.5,549.8,420.1,548.3,418.3,544.7z M427.6,540.1c-1.3-2.5-3.6-4.1-6.1-2.8c-2.7,1.3-2.6,4.1-1.4,6.5c1.3,2.5,3.5,4,6,2.8
				C428.8,545.3,428.9,542.6,427.6,540.1z"/>
			<path class="st6" d="M413,539.7l5.2,12.3l-2.4,1c-2.9-2.1-9.1-6.4-10.3-7.5l0,0c0.8,1.5,1.6,3.4,2.5,5.4l2,4.6l-1.7,0.7L403,544
				l2.2-1c2.7,1.9,9.2,6.7,10.6,7.8l0,0c-0.7-1.3-1.6-3.5-2.5-5.7l-2-4.7L413,539.7z"/>
			<path class="st6" d="M398.2,560l-4.5-12.6l1.9-0.7l4.5,12.6L398.2,560z"/>
			<path class="st6" d="M386.3,553.9c-0.8-1.4-2-1.9-3.8-1.3c-1.9,0.6-2.4,1.7-2.1,2.8c0.4,1.2,1.2,1.7,3.9,1.6
				c3.3-0.2,4.7,0.6,5.2,2.4c0.6,2-0.4,3.9-3.3,4.8c-3.1,0.9-4.9-0.5-5.6-2.1l1.9-0.6c0.5,1,1.5,1.7,3.3,1.2
				c1.5-0.4,2.1-1.3,1.8-2.5c-0.3-1.1-1.2-1.4-3.5-1.3c-3.9,0.2-5-1-5.5-2.7c-0.6-2.1,0.5-4.2,3.6-5.1c3.2-1,5.2,0.3,6.1,2.3
				L386.3,553.9z"/>
			<path class="st6" d="M376.5,566.6l-1.9-7.8c-0.7-3-2.5-3.4-4.1-3c-1.9,0.5-3,1.7-2.3,4.5l1.9,7.8l-1.9,0.5l-1.9-7.7
				c-1-4.2,1.1-6,3.8-6.7c2.7-0.7,5.4,0,6.4,4.1l1.9,7.8L376.5,566.6z"/>
			<path class="st6" d="M362,556.3l2.4,13.1l-2.5,0.5c-2.4-2.7-7.4-8.3-8.4-9.6l0,0c0.4,1.6,0.8,3.7,1.2,5.9l0.9,4.9l-1.8,0.3
				l-2.4-13.1l2.4-0.4c2.2,2.5,7.5,8.6,8.6,9.9l0,0c-0.4-1.4-0.8-3.7-1.2-6.1l-0.9-5L362,556.3z"/>
			<path class="st6" d="M347,564.7l-0.7-5.7l1.9-0.2l1.7,13.2l-5.3,0.7c-2.8,0.3-4.4-1-4.7-3c-0.2-1.7,0.6-2.9,1.8-3.4
				c-1-0.2-2.1-0.8-2.4-3.1l-0.1-0.6c-0.1-0.9-0.2-2-0.5-2.6l1.9-0.2c0.3,0.5,0.4,1.6,0.6,2.8l0,0.3c0.2,1.8,0.8,2.5,3.2,2.2
				L347,564.7z M347.2,566.3l-2.8,0.4c-1.9,0.2-2.7,1.1-2.5,2.5c0.2,1.3,1.1,2,2.9,1.8l3-0.4L347.2,566.3z"/>
			<path class="st6" d="M335.3,573.6l-1.2-13.3l2-0.2l1.2,13.3L335.3,573.6z"/>
			<path class="st6" d="M330.8,560.6l0.7,13.3l-2.6,0.1c-2-3-6.3-9.2-7.1-10.6l0,0c0.2,1.6,0.3,3.8,0.4,6l0.2,5l-1.8,0.1l-0.7-13.3
				l2.4-0.1c1.8,2.8,6.3,9.5,7.2,11l0,0c-0.2-1.4-0.3-3.8-0.4-6.2l-0.3-5.1L330.8,560.6z"/>
			<path class="st6" d="M309.9,574.5l0.1-13.3l2,0l-0.1,13.3L309.9,574.5z"/>
			<path class="st6" d="M306.8,561.2l-0.6,13.3l-2.6-0.1c-1.7-3.2-5.4-9.8-6-11.3l0,0c0.1,1.7-0.1,3.8-0.2,6l-0.2,5l-1.8-0.1
				l0.6-13.3l2.4,0.1c1.6,2.9,5.4,10.1,6.1,11.6l0,0c0-1.5,0.1-3.8,0.2-6.2l0.2-5.1L306.8,561.2z"/>
			<path class="st6" d="M288.9,571.7l4.2,0.4l-0.2,1.7l-10.5-1l0.2-1.7l4.2,0.4l1.2-11.6l2,0.2L288.9,571.7z"/>
			<path class="st6" d="M272.9,564.1l6.5,1l0.6-4.4l-7.2-1l0.5-1.6l8.8,1.3l-1.9,13.2l-8.7-1.3l0.2-1.7l6.8,1l0.6-3.8l-6.5-1
				L272.9,564.1z"/>
			<path class="st6" d="M268,562.8l1.1-5.7l1.9,0.4l-2.6,13.1l-5.2-1c-2.7-0.5-3.9-2.3-3.5-4.3c0.3-1.7,1.5-2.5,2.8-2.7
				c-0.9-0.5-1.7-1.4-1.3-3.7l0.1-0.6c0.2-0.9,0.4-2,0.3-2.6l1.9,0.4c0.1,0.6-0.1,1.6-0.3,2.9l-0.1,0.3c-0.3,1.8,0,2.7,2.3,3.1
				L268,562.8z M267.7,564.4l-2.8-0.5c-1.9-0.4-2.9,0.2-3.2,1.6c-0.3,1.3,0.5,2.3,2.2,2.6l2.9,0.6L267.7,564.4z"/>
			<path class="st6" d="M259.1,555.1l-3.3,12.9l-2.5-0.6c-1-3.5-3.3-10.6-3.7-12.2l0,0c-0.3,1.6-0.8,3.7-1.4,5.8l-1.2,4.8l-1.8-0.5
				l3.3-12.9l2.4,0.6c0.9,3.2,3.3,10.9,3.7,12.6l0,0c0.3-1.4,0.8-3.7,1.4-6l1.3-4.9L259.1,555.1z"/>
			<path class="st6" d="M235.5,554.9l6.3,1.9l1.3-4.3l-6.9-2.1l0.7-1.5l8.5,2.6l-3.9,12.7l-8.4-2.6l0.5-1.6l6.6,2l1.1-3.7l-6.3-1.9
				L235.5,554.9z"/>
			<path class="st6" d="M228.2,558.2l4,1.4l-0.6,1.6l-9.9-3.6l0.6-1.6l4,1.4l4-11l1.9,0.7L228.2,558.2z"/>
		</g>
	</g>
	<g>
		<g>
			<path class="st3" d="M86.9,417.2l-38.4-13l7.9,22.4l-5,1.8l-10.3-29.2l4.8-1.7l37.9,12.6l-8.5-24l5.2-1l10.7,30.4L86.9,417.2z"/>
			<path class="st3" d="M55.1,356.9l4,20.3l13.8-2.7l-4.4-22.3l5.3-0.3l5.5,27.5l-41.1,8.2l-5.4-27.2l5.2-1l4.2,21.2l11.8-2.4
				l-4-20.3L55.1,356.9z"/>
			<path class="st3" d="M54.7,340.2l18.1-0.8l0.3,6.1l-41.8,2l-0.8-16.7c-0.4-8.7,4.1-13.6,10.6-13.9c5.5-0.3,8.9,2.7,10.2,6.5
				c0.7-3.2,3.1-6.3,10.4-6.7l1.8-0.1c2.9-0.1,6.4-0.2,8.2-1l0.3,6c-1.8,0.8-5,1-9,1.2l-0.8,0c-5.7,0.3-8.1,2-7.8,9.3L54.7,340.2z
				 M49.5,340.5l-0.4-8.8c-0.3-6.1-2.7-8.7-7.2-8.4c-4.3,0.2-6.5,3.1-6.3,8.5l0.4,9.4L49.5,340.5z"/>
			<path class="st3" d="M55.3,269.1c11.5,1.4,20.8,9.1,19.2,22.3c-1.5,12.4-11.8,18.1-23.7,16.6c-11.9-1.5-20.5-9.7-19-22.3
				C33.2,273.9,42.9,267.6,55.3,269.1z M51.4,301.6c8.8,1.1,16.9-2.4,18-11c1.1-9.3-6.1-13.9-14.7-15c-8.8-1.1-16.6,2.2-17.6,11
				C35.8,295.7,42.7,300.5,51.4,301.6z"/>
			<path class="st3" d="M38,253.4l4.6-15.5c2.3-8,8.4-12.1,15.8-9.9c8,2.4,10.4,9.4,8.1,17.3l-2.7,9.2l16.2,4.8l-1.8,6L38,253.4z
				 M58.7,253l2.6-8.8c1.5-5.2-0.1-8.7-4.7-10.1c-4.8-1.4-8,1.2-9.3,5.7l-2.7,9L58.7,253z"/>
			<path class="st3" d="M82.6,198.5L74,217.3l12.7,5.9l9.5-20.6l4.5,2.9L89,230.9l-38.1-17.5l11.6-25.2l4.8,2.2l-9,19.7l11,5
				l8.6-18.8L82.6,198.5z"/>
			<path class="st3" d="M103.7,199.8l-34.8-23.3l4.5-6.7c11.3,0.5,34.9,1.4,40,2.1l0-0.1c-4.5-2.5-10.1-6.3-15.8-10.1l-13-8.7
				l3.2-4.8l34.8,23.3l-4.2,6.3c-10.4-0.5-35.8-1.9-41.1-2.4l0,0.1c4,2.3,10.1,6.4,16.4,10.6l13.3,8.9L103.7,199.8z"/>
		</g>
	</g>
</g>
<g>
	<path class="st7" d="M164.4,247.9c-0.1,5.9-0.2,15.8-0.2,22.1l-0.1,5c-0.1,6.2-5.2,11.3-11.5,11.3H78.3c-6.2,0-11.3,5.1-11.3,11.3
		v85.5c0,6.2,5.1,11.3,11.3,11.3h82c6.2,0,11.4-2.1,11.4-4.7c0-2.6,5.1-4.7,11.4-4.7l250.2,0c6.2,0,11.4,2.1,11.4,4.7
		c0,2.6,5.1,4.7,11.4,4.7h80.4c6.2,0,11.3-5.1,11.3-11.3l-0.1-85.5c0-6.2-5.1-11.4-11.4-11.4l-78.4-0.4c-6.2,0-11.3-5.2-11.4-11.4
		l0-11.6c0-6.2-4.9-11.3-10.8-11.2s-10.6-5-10.5-11.2l0-1.2c0.1-6.2-4.9-11.3-11.1-11.2l-49.2,0.5c-6.2,0.1-11.4,4-11.4,8.8
		s-5.1,8.7-11.4,8.7l-66.7-0.2c-6.2,0-11.4,1.3-11.4,2.9s-5.2,2.9-11.4,2.9l-3.4,0c-6.2,0-11.3-3.3-11.2-7.3c0.1-4-5-7.3-11.2-7.2
		l-50.9,0.1C169.7,237.1,164.5,241.9,164.4,247.9z"/>
</g>
<g>
	
		<linearGradient id="SVGID_00000098206035796649138510000016748217907123216827_" gradientUnits="userSpaceOnUse" x1="307.2053" y1="231.034" x2="307.2053" y2="389.9969">
		<stop  offset="0" style="stop-color:#9B8B25;stop-opacity:0.7"/>
		<stop  offset="0.7682" style="stop-color:#958531"/>
		<stop  offset="1" style="stop-color:#706051"/>
	</linearGradient>
	<path style="fill:url(#SVGID_00000098206035796649138510000016748217907123216827_);" d="M167.8,252.7c-0.1,6.2-0.2,16.4-0.3,22.7
		l-0.1,3.1c-0.1,6.2-5.3,11.3-11.5,11.3H82.8c-6.2,0-11.3,5.1-11.3,11.3v77.5c0,6.2,5.1,11.3,11.3,11.3h75.7c6.2,0,11.3-2,11.3-4.4
		c0-2.4,5.1-4.4,11.3-4.4l252.5,0c6.2,0,11.4,2,11.4,4.4c0,2.4,5.2,4.4,11.4,4.4h75c6.2,0,11.3-5.1,11.3-11.3v-77.5
		c0-6.2-5.1-11.4-11.3-11.4l-76.3-0.4c-6.2,0-11.4-5.2-11.4-11.4l-0.1-12.4c0-6.2-4.8-11.4-10.5-11.4c-5.8,0-10.5-5.2-10.6-11.4
		l0-0.4c-0.1-6.2-5.2-11.3-11.5-11.3h-43.7c-6.2,0-11.3,3.8-11.3,8.5s-5.1,8.5-11.3,8.5h-68.1c-6.2,0-11.3,1.4-11.3,3.1
		s-5.1,3.1-11.3,3.1h-6.8c-6.2,0-11.4-3.2-11.4-7.2s-5.1-7.2-11.4-7.2l-45.3-0.1c-6.2,0-11.4,5.1-11.4,11.3L167.8,252.7z"/>
</g>
<g id="XMLID_379_">
	<path id="XMLID_668_" class="st9" d="M268,266.5V263h-37.6v3.6h-3.6l0,35.1h3.6v3.6H268v-3.6h3.6l0-35.2H268z M246.3,289.3l0-10.3
		h5.7v1v3.6v3.6l0,1v1H246.3z"/>
	<path id="XMLID_223_" class="st10" d="M265.4,302.7h-32.5v-3.6h-3.6l0-26.3h3.6v-3.6h32.5v3.6h3.6l0,26.3h-3.6V302.7z M254.6,283.6
		v-7.2h-10.8l0,19.1h10.8v-7.2L254.6,283.6z"/>
	<path id="XMLID_158_" class="st11" d="M265.4,299.1h-32.5v-3.6h-3.6l0-26.3h3.6v-3.6h32.5v3.6h3.6l0,26.3h-3.6V299.1z M254.6,280
		v-7.2h-10.8l0,19.1h10.8l0-4.6V280z"/>
	<polygon id="XMLID_479_" class="st12" points="243.8,279.5 243.8,272.8 254.6,272.8 254.6,279.5 269,279.5 269,269.2 265.4,269.2 
		265.4,265.6 232.9,265.6 232.9,269.2 229.3,269.2 229.3,283.6 	"/>
	<rect id="XMLID_418_" x="232.9" y="265.6" class="st7" width="32.5" height="3.6"/>
</g>
<g>
	<polygon id="XMLID_637_" class="st9" points="291.3,305.2 291.7,287 293.8,287 293.8,290.6 302.6,290.6 302.6,287 304.6,287 
		304.2,305.5 321.6,305.5 321.6,257.1 304.6,257.1 304.6,260.7 301,260.7 301,264.3 295.3,264.3 295.3,260.7 291.7,260.7 
		291.7,257.1 274.3,257.1 274.3,305.2 	"/>
	<path id="XMLID_338_" class="st10" d="M288.8,303h-12l0.2-39.7h12.3v3.6h3.6v3.1h3.6v3.6h3.6V270h3.6v-3.1h3.6v-3.6l12.1,0
		l-0.1,39.7h-12.5l0.4-22.2h-3.6v3.6H300v3.6h-3.6v-3.6h-3.6v-3.6h-3.6L288.8,303z"/>
	<path id="XMLID_98_" class="st11" d="M288.8,299.3h-12l0.2-39.7h12.2v3.6h3.6v3.6h3.6v3.1h3.6v-3.1h3.6v-3.6h3.6v-3.6h12l0.1,39.7
		h-12.5l0.4-22.2h-3.6v3.6H300v3.6h-3.6v-3.6h-3.6v-3.6h-3.6L288.8,299.3z"/>
	<polygon id="XMLID_440_" class="st12" points="319.3,277.2 319.3,259.7 307.2,259.7 307.2,263.3 303.6,263.3 303.6,266.9 
		300,266.9 300,270 296.4,270 296.4,266.9 292.8,266.9 292.8,263.3 289.2,263.3 289.2,259.7 276.9,259.7 276.9,277.2 	"/>
	<polygon id="XMLID_446_" class="st7" points="319.3,263.3 319.3,259.7 307.2,259.7 307.2,263.2 	"/>
	<polygon id="XMLID_458_" class="st7" points="289.2,263.2 289.2,259.7 276.9,259.7 276.9,263.3 	"/>
</g>
<g id="XMLID_529_">
	<polygon id="XMLID_627_" class="st9" points="327.7,302.4 327.7,306 366.3,306 366.3,290.1 354.5,290.1 354.5,277.2 366.3,277.2 
		366.3,261.2 327.7,261.2 327.7,264.8 324.1,264.8 324.1,302.4 	"/>
	<path id="XMLID_354_" class="st10" d="M330.3,299.9h-3.6V271h3.6v-3.6h33.5v7.2h-22.7v7.2h10.8v7.2h-10.8v7.2h22.7v7.2h-33.5V299.9
		z"/>
	<path id="XMLID_82_" class="st11" d="M330.3,296.3h-3.6v-28.9h3.6v-3.6h33.5v7.2h-22.7v7.2h10.8v7.2h-10.8v7.2h22.7v7.2h-33.5
		V296.3z"/>
	<polygon id="XMLID_411_" class="st12" points="351.9,281.8 351.9,278.2 341.1,278.2 341.1,271 363.8,271 363.8,263.8 330.3,263.8 
		330.3,267.4 326.7,267.4 326.7,281.8 	"/>
	<rect id="XMLID_406_" x="330.2" y="263.8" class="st7" width="33.5" height="3.6"/>
</g>
<g id="XMLID_531_">
	<path id="XMLID_374_" class="st9" d="M220.5,251.7v-3.6h-37.6v3.6h-3.6l0,47.7h3.6v3.6h37.6v-3.6h3.6l0-47.7H220.5z M204.5,265.1
		v3.6v1l0,12.6v3.6v1h-5.6l0-22.9h5.6V265.1z"/>
	<path id="XMLID_359_" class="st10" d="M218,300.2h-32.5v-3.6h-3.6l0-38.9h3.6v-3.6h10.8h21.6v3.6h3.6v13.8h-14.4v-10.2h-10.8
		l0,31.7h10.8v-7.2H218h3.6v10.8H218V300.2z"/>
	<path id="XMLID_77_" class="st11" d="M218,296.8h-32.5v-3.6h-3.6l0-38.9h3.6v-3.6h10.8h21.6v3.6h3.6v10.8h-14.4v-7.2h-10.8l0,31.7
		h10.8v-15.5h10.8h3.7v19.1H218V296.8z"/>
	<polygon id="XMLID_416_" class="st12" points="196.3,273.9 196.3,257.9 207.1,257.9 207.1,267.9 221.5,267.9 221.5,254.2 
		217.9,254.2 217.9,250.6 185.5,250.6 185.5,254.2 181.9,254.2 181.9,273.9 	"/>
	<rect id="XMLID_412_" x="185.4" y="250.6" class="st7" width="32.5" height="3.6"/>
</g>
<rect x="289.1" y="-148.7" class="st1" width="165.7" height="66.9"/>
<g id="XMLID_511_">
	<polygon id="XMLID_640_" class="st9" points="400.3,260.4 411.3,260.4 411.3,244.1 369.4,244.1 369.4,260.4 380.4,260.4 
		380.4,302.7 400.3,302.7 	"/>
	<path id="XMLID_320_" class="st13" d="M397.7,300.1H383v-42.3h-11v-7.3h36.7v7.3h-11V300.1z"/>
	<path id="XMLID_116_" class="st11" d="M397.7,296.4H383v-42.3h-11v-7.3h36.7v7.3h-11V296.4z"/>
	<polygon id="XMLID_470_" class="st12" points="383,281.3 397.7,281.3 397.7,254.1 408.7,254.1 408.7,246.8 372,246.8 372,254.1 
		383,254.1 	"/>
	<rect id="XMLID_474_" x="372" y="246.8" class="st7" width="36.7" height="3.7"/>
</g>
<g id="XMLID_521_">
	<path id="XMLID_647_" class="st9" d="M432.6,263.9h-27.5l0,2.6l-2.6,0v33.6h2.6v2.6h27.5v-2.6h2.6l0-33.6h-2.6V263.9z M416.8,291.1
		l0-15.5h4.1l0,15.5H416.8z"/>
	<path id="XMLID_333_" class="st13" d="M430.8,300.9H407v-2.6h-2.6l0-27.2h2.6v-2.6h23.7v2.6h2.6l0,27.2h-2.6V300.9z M422.8,278.9
		v-5.3h-7.9l0,21.9h7.9v-5.3L422.8,278.9z"/>
	<path id="XMLID_102_" class="st11" d="M430.8,298.2H407v-2.6h-2.6l0-27.2h2.6v-2.6h23.7v2.6h2.6l0,27.2h-2.6V298.2z M422.8,276.3
		V271h-7.9l0,21.9h7.9v-5.3L422.8,276.3z"/>
	<polygon id="XMLID_437_" class="st12" points="414.9,281.3 414.9,271 422.8,271 422.8,281.3 433.4,281.3 433.4,268.4 430.8,268.4 
		430.8,265.7 407,265.7 407,268.4 404.4,268.4 404.4,281.3 	"/>
	<rect id="XMLID_441_" x="407" y="265.7" class="st7" width="23.7" height="2.6"/>
</g>
<g id="XMLID_488_">
	<polygon id="XMLID_644_" class="st9" points="142.2,344.6 147.7,344.6 147.7,339.2 153.1,339.2 153.1,333.7 158.5,333.7 
		158.5,300.7 86.2,300.7 86.2,328.3 107.9,328.3 107.9,331.4 102.5,331.4 102.5,336.8 97.1,336.8 97.1,342.3 91.6,342.3 91.6,347.7 
		86.2,347.7 86.2,373.7 158.5,373.7 158.5,347.7 142.2,347.7 	"/>
	<path id="XMLID_308_" class="st10" d="M90.1,310h64.6l0,19.9h-5.4v5.4h-5.4v5.4h-5.4v5.4h-5.4v5.4h-5.4v5.4h27.2l0,12.8H90.1
		l0-12.8h5.4v-5.4h5.4v-5.4h5.4v-5.4h5.4v-5.4h5.4v-5.4h5.1v-5.4H90.1L90.1,310z"/>
	<path id="XMLID_128_" class="st11" d="M90.1,304.5h64.6l0,19.9h-5.4v5.4h-5.4v5.4h-5.4v5.4h-5.4v5.4h-5.4v5.4h27.2l0,12.8H90.1
		l0-12.8h5.4v-5.4h5.4v-5.4h5.4v-5.4h5.4v-5.4h5.4v-5.4h10.3V319H90.1L90.1,304.5z"/>
	<polygon id="XMLID_450_" class="st12" points="122.4,324.4 117.2,324.4 117.2,329.9 111.8,329.9 111.8,335.3 143.8,335.3 
		143.8,329.9 149.2,329.9 149.2,324.4 154.7,324.4 154.7,304.5 90.1,304.5 90.1,319 122.4,319 	"/>
	<rect id="XMLID_417_" x="90.1" y="304.5" class="st7" width="64.6" height="5.4"/>
</g>
<g id="XMLID_00000078759645522160546800000018323458078098301852_">
	<polygon id="XMLID_00000161606860020059263210000016496462924698821814_" class="st9" points="166.5,364.1 166.5,369 222,369 
		222,347.4 202.6,347.4 202.6,330.1 222,330.1 222,308.5 166.5,308.5 166.5,313.4 161.6,313.4 161.6,364.1 	"/>
	<path id="XMLID_00000155830799295958754260000009573993785564360356_" class="st10" d="M169.9,360.6h-4.9v-38.9h4.9v-4.9h48.6v9.7
		h-34v9.7h14.6v9.7h-14.6v9.7h34v9.7h-48.6V360.6z"/>
	<path id="XMLID_00000011005210705891242200000016936027784677424003_" class="st11" d="M169.9,355.8h-4.9v-38.9h4.9V312h48.6v9.7
		h-34v9.7h14.6v9.7h-14.6v9.7h34v9.7h-48.6V355.8z"/>
	<polygon id="XMLID_00000010274050951007700710000006607493022122566289_" class="st12" points="199.1,336.3 199.1,331.5 
		184.5,331.5 184.5,321.7 218.5,321.7 218.5,312 169.9,312 169.9,316.9 165.1,316.9 165.1,336.3 	"/>
	<rect id="XMLID_00000015343910883007945710000005675653737037193622_" x="169.9" y="312" class="st7" width="48.6" height="4.9"/>
</g>
<g id="XMLID_524_">
	<polygon id="XMLID_652_" class="st9" points="225.1,312.1 225.1,365.4 248.4,365.4 248.4,348.2 255.1,348.2 255.1,365.4 
		278.4,365.4 278.4,316.4 274.1,316.4 274.1,312.1 	"/>
	<path id="XMLID_324_" class="st10" d="M245.3,362.3h-17.2v-42.9h17.2h12.9H271v4.3h4.3v12.9H271v8.6h4.3v17.2h-17.2v-17.2h-12.9
		V362.3z M245.3,336.6h12.9V328h-12.9V336.6z"/>
	<path id="XMLID_111_" class="st11" d="M245.3,358.1h-17.2v-42.9h17.2h12.9H271v4.3h4.3v12.9H271v8.6h4.3v17.2h-17.2v-17.2h-12.9
		V358.1z M245.3,332.3h12.9v-8.6h-12.9V332.3z"/>
	<path id="XMLID_422_" class="st12" d="M271,336.6v-4.3h4.3v-12.9H271v-4.3h-42.9v21.5H271z M245.3,323.7h12.9v8.6h-12.9V323.7z"/>
	<rect id="XMLID_427_" x="228.1" y="315.1" class="st7" width="42.9" height="4.2"/>
</g>
<g id="XMLID_00000058565198729796735400000015054905738150101393_">
	<path id="XMLID_00000118392624052990145360000016659684263030922937_" class="st9" d="M328.8,317.2V313h-43.2v4.1h-4.1v43.2h4.1
		v4.1h43.2v-4.1h4.1v-43.2H328.8z M303.9,346.1v-14.8h6.5v1.2v4.1v4.1v4.1v1.2H303.9z"/>
	<path id="XMLID_00000110471818051585521210000000860951294485344668_" class="st10" d="M325.8,361.5h-37.3v-4.1h-4.1v-33.1h4.1
		v-4.1h37.3v4.1h4.1v33.1h-4.1V361.5z M313.4,336.7v-8.3H301v24.8h12.4V345V336.7z"/>
	<path id="XMLID_00000044171334262456329350000004817484406325648315_" class="st11" d="M325.8,357.4h-37.3v-4.1h-4.1v-33.1h4.1V316
		h37.3v4.1h4.1v33.1h-4.1V357.4z M313.4,332.5v-8.3H301v24.8h12.4v-8.3V332.5z"/>
	<polygon id="XMLID_00000053524903693319622040000004162268132035901833_" class="st12" points="301,336.7 301,324.3 313.4,324.3 
		313.4,336.7 330,336.7 330,320.1 325.8,320.1 325.8,316 288.6,316 288.6,320.1 284.4,320.1 284.4,336.7 	"/>
	<rect id="XMLID_00000123407564848731839650000013434569653457140874_" x="288.6" y="316" class="st7" width="37.3" height="4.1"/>
</g>
<g id="XMLID_522_">
	<polygon id="XMLID_648_" class="st9" points="385,312.1 336,312.1 336,365.4 359.3,365.4 359.3,348.2 385,348.2 385,344 389.3,344 
		389.3,316.4 385,316.4 	"/>
	<path id="XMLID_330_" class="st10" d="M356.2,362.3h-17.2v-42.9h17.2h12.9H382v4.3h4.3v17.2H382v4.3h-25.7V362.3z M356.2,336.6
		h12.9V328h-12.9V336.6z"/>
	<path id="XMLID_105_" class="st11" d="M356.2,358.1h-17.2v-42.9h17.2h12.9H382v4.3h4.3v17.2H382v4.3h-25.7V358.1z M356.2,332.3
		h12.9v-8.6h-12.9V332.3z"/>
	<path id="XMLID_436_" class="st12" d="M386.3,336.6v-17.2H382v-4.3h-42.9v21.5H386.3z M356.2,323.7h12.9v8.6h-12.9V323.7z"/>
	<rect id="XMLID_461_" x="339.1" y="315.1" class="st7" width="42.9" height="4.2"/>
</g>
<g id="XMLID_520_">
	<polygon id="XMLID_638_" class="st9" points="496.6,299.1 496.6,310.8 493.3,310.8 493.3,304.9 487.5,304.9 487.5,299.1 
		455.9,299.1 455.9,371.5 487.5,371.5 487.5,348.2 490.8,348.2 490.8,354 496.6,354 496.6,371.5 528.2,371.5 528.2,299.1 	"/>
	<path id="XMLID_336_" class="st10" d="M483.3,367.3H460v-58.2h23.3v5.8h5.8v5.8h5.8v5.8h5.8v-17.5h23.3v58.2h-23.3v-17.5H495V344
		h-5.8v-5.8h-5.8V367.3z"/>
	<path id="XMLID_100_" class="st11" d="M483.3,361.5H460v-58.2h23.3v5.8h5.8v5.8h5.8v5.8h5.8v-17.5h23.3v58.2h-23.3V344H495v-5.8
		h-5.8v-5.8h-5.8V361.5z"/>
	<polygon id="XMLID_438_" class="st12" points="524.1,332.4 524.1,303.3 500.8,303.3 500.8,320.7 495,320.7 495,314.9 489.1,314.9 
		489.1,309.1 483.3,309.1 483.3,303.3 460,303.3 460,332.4 	"/>
	<rect id="XMLID_444_" x="500.8" y="303.3" class="st7" width="23.3" height="5.7"/>
	<rect id="XMLID_459_" x="460" y="303.3" class="st7" width="23.3" height="5.7"/>
</g>
<g id="XMLID_00000011009342876168816910000000517704285179450042_">
	<polygon id="XMLID_00000083090598509125810280000016809215812116271246_" class="st9" points="397.3,362.5 397.3,367.4 
		452.8,367.4 452.8,345.9 433.4,345.9 433.4,328.5 452.8,328.5 452.8,307 397.3,307 397.3,311.9 392.4,311.9 392.4,362.5 	"/>
	<path id="XMLID_00000036251935515299874700000015559155017844075663_" class="st10" d="M400.7,359.1h-4.9v-38.9h4.9v-4.9h48.6v9.7
		h-34v9.7h14.6v9.7h-14.6v9.7h34v9.7h-48.6V359.1z"/>
	<path id="XMLID_00000110460139763203627710000006063298291981792182_" class="st11" d="M400.7,354.2h-4.9v-38.9h4.9v-4.9h48.6v9.7
		h-34v9.7h14.6v9.7h-14.6v9.7h34v9.7h-48.6V354.2z"/>
	<polygon id="XMLID_00000100371414064598637440000009174994694390030753_" class="st12" points="429.9,334.8 429.9,329.9 
		415.3,329.9 415.3,320.2 449.3,320.2 449.3,310.5 400.7,310.5 400.7,315.3 395.9,315.3 395.9,334.8 	"/>
	
		<rect id="XMLID_00000052805222869748578360000015131980283232536207_" x="400.7" y="310.5" class="st7" width="48.6" height="4.9"/>
</g>
<g class="st14">
	
		<radialGradient id="SVGID_00000087411881199244633810000014093981805564629892_" cx="568.2487" cy="-153.607" r="26.2758" fx="553.7144" fy="-175.4969" gradientUnits="userSpaceOnUse">
		<stop  offset="8.379889e-02" style="stop-color:#FAEE00"/>
		<stop  offset="0.2019" style="stop-color:#FBF067"/>
		<stop  offset="0.3731" style="stop-color:#FAF4AF"/>
		<stop  offset="0.5154" style="stop-color:#F9F6DA"/>
		<stop  offset="0.6212" style="stop-color:#F8F7F0"/>
		<stop  offset="0.6788" style="stop-color:#F7F8F8"/>
	</radialGradient>
	<path style="display:inline;fill:url(#SVGID_00000087411881199244633810000014093981805564629892_);" d="M565.2-170.7
		c-5-3.7-8.5-1.7-7.7,4.5l4.4,35.5c0.8,6.2,5,7.6,9.3,3.1l4.4-4.5c0,0,0,0,0,0l8.5,15c3.1,5.4,8.1,8.4,11.2,6.5
		c3.1-1.8,3-7.7-0.1-13.1l-8.9-15.1c0-0.1,0-0.1,0.1-0.1l4.9-1.3c6-1.6,6.8-6,1.8-9.7L565.2-170.7z"/>
	<path class="st16" d="M565.2-170.7c-5-3.7-8.5-1.7-7.7,4.5l4.4,35.5c0.8,6.2,5,7.6,9.3,3.1l4.4-4.5c0,0,0,0,0,0l8.5,15
		c3.1,5.4,8.1,8.4,11.2,6.5c3.1-1.8,3-7.7-0.1-13.1l-8.9-15.1c0-0.1,0-0.1,0.1-0.1l4.9-1.3c6-1.6,6.8-6,1.8-9.7L565.2-170.7z"/>
</g>
<g class="st14">
	<g class="st17">
		<path class="st11" d="M505.5-87.4c0.6,1.4,0,3.1-1.4,3.7s-3.1,0-3.7-1.4l-7.1-15.8c-0.6-1.4,0-3.1,1.4-3.7c1.4-0.6,3.1,0,3.7,1.4
			L505.5-87.4z"/>
		<path class="st18" d="M505.5-87.4c0.6,1.4,0,3.1-1.4,3.7s-3.1,0-3.7-1.4l-7.1-15.8c-0.6-1.4,0-3.1,1.4-3.7c1.4-0.6,3.1,0,3.7,1.4
			L505.5-87.4z"/>
	</g>
	<g class="st17">
		<path class="st11" d="M524.9-86.5c-0.6,1.5-2.2,2.2-3.6,1.7s-2.2-2.2-1.6-3.6l6.1-16.2c0.6-1.5,2.2-2.2,3.6-1.7
			c1.4,0.5,2.2,2.2,1.6,3.6L524.9-86.5z"/>
		<path class="st18" d="M524.9-86.5c-0.6,1.5-2.2,2.2-3.6,1.7s-2.2-2.2-1.6-3.6l6.1-16.2c0.6-1.5,2.2-2.2,3.6-1.7
			c1.4,0.5,2.2,2.2,1.6,3.6L524.9-86.5z"/>
	</g>
	<g class="st17">
		<path class="st11" d="M537.3-73.8c-1.4,0.6-3.1,0-3.7-1.4c-0.6-1.4,0-3.1,1.4-3.7l15.8-7.1c1.4-0.6,3.1,0,3.7,1.4
			c0.6,1.4,0,3.1-1.4,3.7L537.3-73.8z"/>
		<path class="st18" d="M537.3-73.8c-1.4,0.6-3.1,0-3.7-1.4c-0.6-1.4,0-3.1,1.4-3.7l15.8-7.1c1.4-0.6,3.1,0,3.7,1.4
			c0.6,1.4,0,3.1-1.4,3.7L537.3-73.8z"/>
	</g>
	<g class="st17">
		<path class="st11" d="M471.8-76.1c-1.5-0.6-2.2-2.2-1.7-3.6c0.5-1.4,2.2-2.2,3.6-1.6l16.2,6.1c1.5,0.6,2.2,2.2,1.7,3.6
			c-0.5,1.4-2.2,2.2-3.6,1.6L471.8-76.1z"/>
		<path class="st18" d="M471.8-76.1c-1.5-0.6-2.2-2.2-1.7-3.6c0.5-1.4,2.2-2.2,3.6-1.6l16.2,6.1c1.5,0.6,2.2,2.2,1.7,3.6
			c-0.5,1.4-2.2,2.2-3.6,1.6L471.8-76.1z"/>
	</g>
	<g class="st17">
		<path class="st11" d="M474-45.3c-1.4,0.6-3.1,0-3.7-1.4c-0.6-1.4,0-3.1,1.4-3.7l15.8-7.1c1.4-0.6,3.1,0,3.7,1.4
			c0.6,1.4,0,3.1-1.4,3.7L474-45.3z"/>
		<path class="st18" d="M474-45.3c-1.4,0.6-3.1,0-3.7-1.4c-0.6-1.4,0-3.1,1.4-3.7l15.8-7.1c1.4-0.6,3.1,0,3.7,1.4
			c0.6,1.4,0,3.1-1.4,3.7L474-45.3z"/>
	</g>
</g>
<text transform="matrix(1 0 0 1 221.5469 409.5767)" class="st7 st19 st20">click to join</text>
<rect x="100.7" y="-148.7" class="st21" width="177.7" height="41.3"/>
<text transform="matrix(1 0 0 1 320.7159 792.4548)" class="st22 st19 st23">쀼장 박세현 : 010-3945-2271</text>
<text transform="matrix(1 0 0 1 63.3352 792.4548)" class="st22 st19 st23">부장 안도현 : 010-8527-2599</text>
<g>
	<path class="st24" d="M239.7,645h-3.2v-1.6h-1.6v-1.6h-3.2v1.6h-1.6v1.6h-3.2v-1.6h1.6v-1.6h1.6v-1.6h1.6v-11.1h-4.8v-1.6h12.7v1.6
		h-4.8v11.1h1.6v1.6h1.6v1.6h1.6V645z M244.4,646.6h-3.2v-9.5h-3.2v-1.6h3.2V626h3.2V646.6z M249.2,646.6H246V626h3.2V646.6z"/>
	<path class="st24" d="M254,637.1v-4.8h15.9v-3.2H254v-1.6H273v6.4h-15.9v3.2H273v1.6h-7.9v4.8h9.5v1.6h-22.3v-1.6h9.5v-4.8h-6.4
		v-1.6H254z"/>
	<path class="st24" d="M300.1,637.1h-22.3v-1.6h22.3V637.1z M282.6,627.5h-3.2V626h19.1v1.6h-3.2v4.8h3.2v1.6h-19.1v-1.6h3.2V627.5z
		 M282.6,645h15.9v1.6H281V645h-1.6v-6.4h3.2V645z M292.1,627.5h-6.4v4.8h6.4V627.5z"/>
	<path class="st24" d="M308,643.4v-7.9h3.2v1.6h1.6v-7.9h-9.5v-1.6h12.7v9.5h-1.6v1.6h-3.2v4.8h7.9V626h3.2v9.5h4.8v1.6h-4.8v9.5
		h-3.2V645h-15.9v-1.6H308z"/>
	<path class="st24" d="M350.9,637.1h-6.4v-1.6h-3.2v-4.8h3.2v-1.6h-3.2v-1.6h4.8V626h3.2v1.6h4.8v1.6h-3.2v1.6h3.2v4.8h-3.2V637.1z
		 M360.5,645h-1.6v1.6h-14.3V645H343v-6.4h17.5V645z M346.1,632.3h-1.6v1.6h1.6v1.6h3.2v-1.6h1.6v-1.6h-1.6v-1.6h-3.2V632.3z
		 M357.3,640.3h-11.1v4.8h11.1V640.3z M360.5,630.7h4.8v1.6h-4.8v4.8h-3.2V626h3.2V630.7z"/>
	<path class="st24" d="M376.3,645h-3.2v-1.6h1.6v-14.3h-1.6v12.7h-1.6v1.6H370v1.6h-3.2v-1.6h1.6v-1.6h1.6v-12.7h-3.2v-1.6h11.1v7.9
		h3.2V626h3.2v20.7h-3.2v-9.5h-3.2v6.4h-1.6V645z M389.1,626v20.7h-3.2V626H389.1z"/>
	<path class="st24" d="M187.2,674.8h1.6v-12.7h-6.4v-1.6h9.5v14.3h-1.6v1.6h-1.6v1.6H184v-1.6h3.2V674.8z M199.9,679.6h-3.2v-9.5
		h-3.2v-1.6h3.2V659h3.2V679.6z M204.7,679.6h-3.2V659h3.2V679.6z"/>
	<path class="st24" d="M217.4,670.1H211v-1.6h-1.6v-1.6h-1.6v-4.8h1.6v-1.6h1.6V659h6.4v1.6h1.6v1.6h1.6v4.8H219v1.6h-1.6V670.1z
		 M228.5,678h-1.6v1.6H211V678h-1.6v-6.4h19.1V678z M212.6,662.1H211v4.8h1.6v1.6h3.2v-1.6h1.6v-4.8h-1.6v-1.6h-3.2V662.1z
		 M225.4,673.3h-12.7v4.8h12.7V673.3z M228.5,670.1h-3.2V659h3.2V670.1z"/>
	<path class="st24" d="M250.8,674.8h1.6v-12.7H246v-1.6h9.5v14.3H254v1.6h-1.6v1.6h-4.8v-1.6h3.2V674.8z M263.5,679.6h-3.2V659h3.2
		v9.5h1.6V659h3.2v20.7h-3.2v-9.5h-1.6V679.6z"/>
	<path class="st24" d="M273,668.5h-1.6V659h3.2v4.8h6.4V659h3.2v9.5h-1.6v1.6H273V668.5z M273,674.8h14.3v-1.6H273v-1.6h17.5v4.8
		h-14.3v1.6h14.3v1.6h-15.9V678H273V674.8z M281,665.3h-6.4v3.2h6.4V665.3z M290.5,663.7h4.8v1.6h-4.8v4.8h-3.2V659h3.2V663.7z"/>
	<path class="st24" d="M311.2,668.5v-1.6h-1.6v-3.2h1.6v-1.6h4.8v1.6h1.6v3.2h-1.6v1.6h-3.2v6.4h3.2v1.6h-4.8v-1.6h-1.6v-6.4H311.2z
		 M312.8,663.7v3.2h1.6v-3.2H312.8z M315.9,671.7h-1.6v-1.6h6.4v1.6h-1.6v3.2h1.6v1.6h-3.2v-1.6h-1.6V671.7z"/>
	<path class="st24" d="M344.6,678h-7.9v-1.6H335v-15.9h11.1v1.6h-7.9v14.3h4.8v-1.6h3.2v1.6h-1.6V678z M355.7,679.6h-3.2V659h3.2
		V679.6z"/>
	<path class="st24" d="M373.2,678H370v-1.6h-1.6v-1.6h-3.2v1.6h-1.6v1.6h-3.2v-1.6h1.6v-1.6h1.6v-1.6h1.6v-11.1h-4.8v-1.6h12.7v1.6
		h-4.8v11.1h1.6v1.6h1.6v1.6h1.6V678z M379.5,668.5h4.8v1.6h-4.8v9.5h-3.2V659h3.2V668.5z"/>
	<path class="st24" d="M395.4,670.1h-6.4v-1.6h-1.6v-1.6h-1.6v-4.8h1.6v-1.6h1.6V659h6.4v1.6h1.6v1.6h1.6v4.8H397v1.6h-1.6V670.1z
		 M390.7,678h15.9v1.6h-17.5V678h-1.6v-6.4h3.2V678z M390.7,662.1h-1.6v4.8h1.6v1.6h3.2v-1.6h1.6v-4.8h-1.6v-1.6h-3.2V662.1z
		 M406.5,670.1h-3.2V659h3.2V670.1z"/>
	<path class="st24" d="M432,679.6h-3.2V678h-17.5v-1.6h17.5V659h3.2V679.6z M420.8,671.7h-6.4v-1.6h-1.6v-1.6h-1.6v-4.8h1.6v-1.6
		h1.6v-1.6h6.4v1.6h1.6v1.6h1.6v4.8h-1.6v1.6h-1.6V671.7z M416.1,663.7h-1.6v4.8h1.6v1.6h3.2v-1.6h1.6v-4.8h-1.6v-1.6h-3.2V663.7z"
		/>
	<path class="st24" d="M122,709.4h-1.6v-1.6h-3.2v1.6h-1.6v1.6h-3.2v-1.6h1.6v-1.6h1.6v-1.6h1.6v-12.7h3.2v12.7h1.6v1.6h1.6v1.6h1.6
		v1.6H122V709.4z M130,712.6h-3.2v-9.5h-3.2v-1.6h3.2V692h3.2V712.6z M134.8,712.6h-3.2V692h3.2V712.6z"/>
	<path class="st24" d="M142.7,707.8h1.6v-12.7h-6.4v-1.6h9.5v14.3h-1.6v1.6h-1.6v1.6h-4.8v-1.6h3.2V707.8z M149.1,698.3h3.2V692h3.2
		v20.7h-3.2v-6.4h-3.2v-1.6h3.2v-4.8h-3.2V698.3z M160.2,712.6H157V692h3.2V712.6z"/>
	<path class="st24" d="M165,703.1v-4.8h15.9v-3.2H165v-1.6H184v6.4h-15.9v3.2H184v1.6h-7.9v4.8h9.5v1.6h-22.3v-1.6h9.5v-4.8h-6.4
		v-1.6H165z"/>
	<path class="st24" d="M214.2,695.1h-4.8v14.3h3.2v1.6h-9.5v-1.6h-1.6v-15.9h12.7V695.1z M206.3,695.1h-1.6v14.3h1.6V695.1z
		 M212.6,707.8h1.6v1.6h-1.6V707.8z M222.2,692v20.7H219v-9.5h-4.8v-1.6h4.8V692H222.2z"/>
	<path class="st24" d="M230.1,701.5h9.5v1.6h-11.1v-1.6h-1.6V692h3.2V701.5z M228.5,707.8h14.3v-1.6h-14.3v-1.6H246v4.8h-14.3v1.6
		H246v1.6h-15.9V711h-1.6V707.8z M246,696.7h4.8v1.6H246v4.8h-3.2V692h3.2V696.7z"/>
	<path class="st24" d="M287.3,706.3h-9.5v6.4h-3.2v-6.4h-9.5v-1.6h22.3V706.3z M268.3,699.9h-1.6v-6.4h3.2v3.2h12.7v-3.2h3.2v6.4
		h-1.6v1.6h-15.9V699.9z M282.6,698.3h-12.7v1.6h12.7V698.3z"/>
	<path class="st24" d="M290.5,701.5v-1.6h3.2v-1.6h-3.2v-4.8h3.2V692h6.4v1.6h3.2v4.8h-3.2v1.6h7.9V692h3.2v12.7H308v-1.6h-4.8v-1.6
		h-4.8v3.2h-3.2v-3.2H290.5z M292.1,704.7h3.2v6.4h15.9v1.6h-17.5V711h-1.6V704.7z M298.5,693.5h-3.2v1.6h-1.6v1.6h1.6v1.6h3.2v-1.6
		h1.6v-1.6h-1.6V693.5z"/>
	<path class="st24" d="M338.2,703.1h-22.3v-1.6h22.3V703.1z M317.5,693.5h3.2V692h12.7v1.6h3.2v4.8h-3.2v1.6h-12.7v-1.6h-3.2V693.5z
		 M317.5,707.8h15.9v-1.6h-15.9v-1.6h19.1v4.8h-15.9v1.6h15.9v1.6h-17.5V711h-1.6V707.8z M322.3,695.1h-1.6v1.6h1.6v1.6h9.5v-1.6
		h1.6v-1.6h-1.6v-1.6h-9.5V695.1z"/>
	<path class="st24" d="M355.7,703.1v-9.5h19.1v9.5h-1.6v1.6h-6.4v4.8h9.5v1.6h-22.3v-1.6h9.5v-4.8h-6.4v-1.6H355.7z M371.6,703.1
		v-7.9h-12.7v7.9H371.6z"/>
	<path class="st24" d="M392.2,703.1h-3.2v-1.6h-1.6v-1.6h-3.2v1.6h-1.6v1.6h-3.2v-1.6h1.6v-1.6h1.6v-1.6h1.6v-4.8h-4.8V692h12.7v1.6
		h-4.8v4.8h1.6v1.6h1.6v1.6h1.6V703.1z M382.7,711h-1.6v-6.4h3.2v3.2H397v-3.2h3.2v6.4h-1.6v1.6h-15.9V711z M397,709.4h-12.7v1.6
		H397V709.4z M400.2,703.1H397V692h3.2V703.1z"/>
	<path class="st24" d="M414.5,703.1h-6.4v-1.6H405v-4.8h3.2v-1.6H405v-1.6h4.8V692h3.2v1.6h4.8v1.6h-3.2v1.6h3.2v4.8h-3.2V703.1z
		 M408.1,711h-1.6v-6.4h3.2v3.2h11.1v-3.2h3.2v6.4h-1.6v1.6h-14.3V711z M409.7,698.3h-1.6v1.6h1.6v1.6h3.2v-1.6h1.6v-1.6h-1.6v-1.6
		h-3.2V698.3z M420.8,709.4h-11.1v1.6h11.1V709.4z M424,696.7h4.8v1.6H424v4.8h-3.2V692h3.2V696.7z"/>
	<path class="st24" d="M432,709.4h-1.6v-15.9h3.2v15.9h6.4v-1.6h3.2v1.6h-1.6v1.6H432V709.4z M451,712.6h-3.2V692h3.2V712.6z"/>
	<path class="st24" d="M465.4,711h-7.9v-1.6h-1.6v-15.9h11.1v1.6H459v14.3h4.8v-1.6h3.2v1.6h-1.6V711z M474.9,701.5h4.8v1.6h-4.8
		v9.5h-3.2V692h3.2V701.5z"/>
	<path class="st24" d="M487.6,695.1v1.6h1.6v4.8h-1.6v3.2h-3.2v-3.2h-1.6v-4.8h1.6v-1.6H487.6z M484.4,709.4v-3.2h3.2v3.2H484.4z"/>
	<path class="st24" d="M500.3,695.1v1.6h1.6v4.8h-1.6v3.2h-3.2v-3.2h-1.6v-4.8h1.6v-1.6H500.3z M497.1,709.4v-3.2h3.2v3.2H497.1z"/>
</g>
<path id="SVGID_x5F_00000102535151669086256380000001918248977011794840_x5F_" class="st4" d="M298.1,589.3
	c0,178-144.3,322.2-322.2,322.2s-322.2-144.3-322.2-322.2S-202.1,267-24.1,267S298.1,411.3,298.1,589.3z"/>
<text class="st19 st25"><textPath  xlink:href="#SVGID_x5F_00000102535151669086256380000001918248977011794840_x5F_" startOffset="33.3333%">
 </textPath>
</text>
<line class="st26" x1="63.3" y1="608" x2="531.9" y2="608"/>
<line class="st26" x1="63.8" y1="732.7" x2="532.4" y2="732.7"/>
<g>
	<path class="st27" d="M313.3,593.3c-5.8,0-10.5,4.7-10.5,10.5c0,5.8,4.7,10.5,10.5,10.5s10.5-4.7,10.5-10.5
		C323.8,598,319.1,593.3,313.3,593.3z"/>
	<g>
		<polygon class="st28" points="311.5,594.5 317,599.4 311.6,603.3 317,608.6 309.2,603.5 314.9,599.2 		"/>
		<polygon class="st28" points="311.5,598.3 317,603.2 311.6,607.2 317,612.4 309.2,607.3 314.9,603 		"/>
		<path class="st28" d="M313.1,610.9c-4,0-7.2-3.2-7.2-7.2c0-3.5,2.5-6.4,5.7-7.1l-0.2-1.2c-3.8,0.8-6.7,4.2-6.7,8.3
			c0,4.7,3.8,8.4,8.4,8.4c0.2,0,0.4,0,0.5,0l-0.1-1.2C313.4,610.9,313.2,610.9,313.1,610.9z"/>
		<path class="st28" d="M321.5,603.7c0-3.9-2.7-7.2-6.3-8.2l-0.3,1.2c3.1,0.8,5.4,3.6,5.4,7c0,2.8-1.6,5.2-3.9,6.4l0.6,1.1
			C319.7,609.7,321.5,606.9,321.5,603.7z"/>
	</g>
</g>
<g>
	
		<image style="overflow:visible;" width="643" height="810" xlink:href="85BFEE4A.png"  transform="matrix(0.24 0 0 0.24 456.0091 339.3859)">
	</image>
	<g>
		<g>
			<polyline class="st7" points="538.9,485.2 550.4,485.2 550.4,473.7 544.6,473.7 544.6,462.3 538.9,462.3 538.9,450.8 
				561.8,450.8 561.8,445 556.1,445 556.1,439.3 550.4,439.3 550.4,433.6 544.6,433.6 544.6,427.8 538.9,427.8 538.9,422.1 
				533.1,422.1 533.1,416.4 527.4,416.4 527.4,410.6 521.7,410.6 521.7,404.9 515.9,404.9 515.9,399.1 510.2,399.1 510.2,393.4 
				504.5,393.4 504.5,473.7 510.2,473.7 510.2,468 515.9,468 515.9,462.3 521.7,462.3 521.7,456.5 527.4,456.5 527.4,462.3 
				533.1,462.3 533.1,473.7 538.9,473.7 538.9,485.2 550.4,485.2 550.4,473.7 			"/>
			<g>
				<rect x="498.7" y="468" class="st6" width="5.7" height="5.7"/>
				<rect x="498.7" y="462.3" class="st6" width="5.7" height="5.7"/>
				<rect x="498.7" y="456.5" class="st6" width="5.7" height="5.7"/>
				<rect x="498.7" y="450.8" class="st6" width="5.7" height="5.7"/>
				<rect x="498.7" y="445" class="st6" width="5.7" height="5.7"/>
				<rect x="498.7" y="439.3" class="st6" width="5.7" height="5.7"/>
				<rect x="498.7" y="433.6" class="st6" width="5.7" height="5.7"/>
				<rect x="498.7" y="427.8" class="st6" width="5.7" height="5.7"/>
				<rect x="498.7" y="422.1" class="st6" width="5.7" height="5.7"/>
				<rect x="498.7" y="416.4" class="st6" width="5.7" height="5.7"/>
				<rect x="498.7" y="410.6" class="st6" width="5.7" height="5.7"/>
				<rect x="498.7" y="404.9" class="st6" width="5.7" height="5.7"/>
				<rect x="498.7" y="399.1" class="st6" width="5.7" height="5.7"/>
				<rect x="498.7" y="393.4" class="st6" width="5.7" height="5.7"/>
				<rect x="498.7" y="387.7" class="st6" width="5.7" height="5.7"/>
				<rect x="498.7" y="381.9" class="st6" width="5.7" height="5.7"/>
				<rect x="561.8" y="450.8" class="st6" width="5.7" height="5.7"/>
				<rect x="556.1" y="450.8" class="st6" width="5.7" height="5.7"/>
				<rect x="550.4" y="450.8" class="st6" width="5.7" height="5.7"/>
				<rect x="544.6" y="450.8" class="st6" width="5.7" height="5.7"/>
				<rect x="538.9" y="450.8" class="st6" width="5.7" height="5.7"/>
				<rect x="538.9" y="456.5" class="st6" width="5.7" height="5.7"/>
				<rect x="544.6" y="462.3" class="st6" width="5.7" height="5.7"/>
				<rect x="544.6" y="468" class="st6" width="5.7" height="5.7"/>
				<rect x="550.4" y="473.7" class="st6" width="5.7" height="5.7"/>
				<rect x="550.4" y="479.5" class="st6" width="5.7" height="5.7"/>
				<rect x="533.1" y="479.5" class="st6" width="5.7" height="5.7"/>
				<rect x="533.1" y="473.7" class="st6" width="5.7" height="5.7"/>
				<rect x="510.2" y="468" class="st6" width="5.7" height="5.7"/>
				<rect x="504.5" y="473.7" class="st6" width="5.7" height="5.7"/>
				<rect x="498.7" y="473.7" class="st6" width="5.7" height="5.7"/>
				<rect x="515.9" y="462.3" class="st6" width="5.7" height="5.7"/>
				<rect x="521.7" y="456.5" class="st6" width="5.7" height="5.7"/>
				<rect x="527.4" y="462.3" class="st6" width="5.7" height="5.7"/>
				<rect x="527.4" y="468" class="st6" width="5.7" height="5.7"/>
				<rect x="538.9" y="485.2" class="st6" width="5.7" height="5.7"/>
				<rect x="544.6" y="485.2" class="st6" width="5.7" height="5.7"/>
				<rect x="561.8" y="445" class="st6" width="5.7" height="5.7"/>
				<rect x="556.1" y="439.3" class="st6" width="5.7" height="5.7"/>
				<rect x="550.4" y="433.6" class="st6" width="5.7" height="5.7"/>
				<rect x="544.6" y="427.8" class="st6" width="5.7" height="5.7"/>
				<rect x="538.9" y="422.1" class="st6" width="5.7" height="5.7"/>
				<rect x="533.1" y="416.4" class="st6" width="5.7" height="5.7"/>
				<rect x="527.4" y="410.6" class="st6" width="5.7" height="5.7"/>
				<rect x="521.7" y="404.9" class="st6" width="5.7" height="5.7"/>
				<rect x="515.9" y="399.1" class="st6" width="5.7" height="5.7"/>
				<rect x="510.2" y="393.4" class="st6" width="5.7" height="5.7"/>
				<rect x="504.5" y="387.7" class="st6" width="5.7" height="5.7"/>
			</g>
		</g>
	</g>
</g>
<rect x="500.3" y="-88.6" class="st29" width="5.7" height="5.7"/>
</svg>
